<svg id="Layer_1" enable-background="new 0 0 512 512" height="512" viewBox="0 0 512 512" width="512" xmlns="http://www.w3.org/2000/svg"><g><path d="m184.14 236.531c0-14.871-12.098-26.969-26.969-26.969h-19.469c-4.142 0-7.5 3.358-7.5 7.5v77.875c0 4.142 3.358 7.5 7.5 7.5h19.469c14.871 0 26.969-12.098 26.969-26.969 0-7.645-3.197-14.556-8.325-19.469 5.128-4.911 8.325-11.823 8.325-19.468zm-15 38.938c0 6.6-5.369 11.969-11.969 11.969h-11.969v-23.938h11.969c6.6 0 11.969 5.369 11.969 11.969zm-23.938-26.969v-23.938h11.969c6.6 0 11.969 5.369 11.969 11.969s-5.369 11.969-11.969 11.969z"/><path d="m340.536 302.438h34.265c4.142 0 7.5-3.358 7.5-7.5s-3.358-7.5-7.5-7.5h-26.765v-23.938h26.765c4.142 0 7.5-3.358 7.5-7.5s-3.358-7.5-7.5-7.5h-26.765v-23.938h26.765c4.142 0 7.5-3.358 7.5-7.5s-3.358-7.5-7.5-7.5h-34.265c-4.142 0-7.5 3.358-7.5 7.5v77.875c0 4.143 3.358 7.501 7.5 7.501z"/><path d="m252.417 244.319v-27.256c0-4.142-3.358-7.5-7.5-7.5s-7.5 3.358-7.5 7.5v27.256c0 6.6-5.369 11.969-11.969 11.969s-11.969-5.369-11.969-11.969v-27.256c0-4.142-3.358-7.5-7.5-7.5s-7.5 3.358-7.5 7.5v27.256c0 12.269 8.236 22.65 19.469 25.907v24.711c0 4.142 3.358 7.5 7.5 7.5s7.5-3.358 7.5-7.5v-24.711c11.234-3.257 19.469-13.638 19.469-25.907z"/><path d="m312.218 209.563h-38.938c-4.142 0-7.5 3.358-7.5 7.5s3.358 7.5 7.5 7.5h11.969v70.375c0 4.142 3.358 7.5 7.5 7.5s7.5-3.358 7.5-7.5v-70.375h11.969c4.142 0 7.5-3.358 7.5-7.5s-3.358-7.5-7.5-7.5z"/><path d="m7.5 152.141c4.142 0 7.5-3.358 7.5-7.5v-51.886c0-4.142-3.358-7.5-7.5-7.5s-7.5 3.358-7.5 7.5v51.886c0 4.142 3.358 7.5 7.5 7.5z"/><path d="m75.028 92.755c0-4.142-3.358-7.5-7.5-7.5h-30.014c-4.142 0-7.5 3.358-7.5 7.5v51.886c0 4.142 3.358 7.5 7.5 7.5h30.014c4.142 0 7.5-3.358 7.5-7.5zm-15 44.386h-15.014v-36.886h15.014z"/><path d="m105.042 92.755c0-4.142-3.358-7.5-7.5-7.5s-7.5 3.358-7.5 7.5v51.886c0 4.142 3.358 7.5 7.5 7.5s7.5-3.358 7.5-7.5z"/><path d="m135.056 144.641v-51.886c0-4.142-3.358-7.5-7.5-7.5s-7.5 3.358-7.5 7.5v51.886c0 4.142 3.358 7.5 7.5 7.5s7.5-3.358 7.5-7.5z"/><path d="m7.5 425.746c4.142 0 7.5-3.358 7.5-7.5v-51.886c0-4.142-3.358-7.5-7.5-7.5s-7.5 3.358-7.5 7.5v51.886c0 4.142 3.358 7.5 7.5 7.5z"/><path d="m67.528 358.86h-30.014c-4.142 0-7.5 3.358-7.5 7.5v51.886c0 4.142 3.358 7.5 7.5 7.5h30.014c4.142 0 7.5-3.358 7.5-7.5v-51.886c0-4.142-3.358-7.5-7.5-7.5zm-7.5 51.886h-15.014v-36.886h15.014z"/><path d="m97.542 358.86c-4.142 0-7.5 3.358-7.5 7.5v51.886c0 4.142 3.358 7.5 7.5 7.5s7.5-3.358 7.5-7.5v-51.886c0-4.142-3.358-7.5-7.5-7.5z"/><path d="m120.056 366.36v51.886c0 4.142 3.358 7.5 7.5 7.5s7.5-3.358 7.5-7.5v-51.886c0-4.142-3.358-7.5-7.5-7.5s-7.5 3.358-7.5 7.5z"/><path d="m75.028 230.057c0-4.142-3.358-7.5-7.5-7.5s-7.5 3.358-7.5 7.5v51.886c0 4.142 3.358 7.5 7.5 7.5s7.5-3.358 7.5-7.5z"/><path d="m7.5 289.443h30.014c4.142 0 7.5-3.358 7.5-7.5v-51.886c0-4.142-3.358-7.5-7.5-7.5h-30.014c-4.142 0-7.5 3.358-7.5 7.5v51.886c0 4.142 3.358 7.5 7.5 7.5zm7.5-51.886h15.014v36.886h-15.014z"/><path d="m504.5 85.255c-4.142 0-7.5 3.358-7.5 7.5v51.886c0 4.142 3.358 7.5 7.5 7.5s7.5-3.358 7.5-7.5v-51.886c0-4.142-3.358-7.5-7.5-7.5z"/><path d="m444.472 152.141h30.014c4.142 0 7.5-3.358 7.5-7.5v-51.886c0-4.142-3.358-7.5-7.5-7.5h-30.014c-4.142 0-7.5 3.358-7.5 7.5v51.886c0 4.142 3.358 7.5 7.5 7.5zm7.5-51.886h15.014v36.886h-15.014z"/><path d="m414.458 85.255c-4.142 0-7.5 3.358-7.5 7.5v51.886c0 4.142 3.358 7.5 7.5 7.5s7.5-3.358 7.5-7.5v-51.886c0-4.142-3.357-7.5-7.5-7.5z"/><path d="m391.944 92.755c0-4.142-3.358-7.5-7.5-7.5s-7.5 3.358-7.5 7.5v51.886c0 4.142 3.358 7.5 7.5 7.5s7.5-3.358 7.5-7.5z"/><path d="m504.5 358.86c-4.142 0-7.5 3.358-7.5 7.5v51.886c0 4.142 3.358 7.5 7.5 7.5s7.5-3.358 7.5-7.5v-51.886c0-4.142-3.358-7.5-7.5-7.5z"/><path d="m436.972 418.246c0 4.142 3.358 7.5 7.5 7.5h30.014c4.142 0 7.5-3.358 7.5-7.5v-51.886c0-4.142-3.358-7.5-7.5-7.5h-30.014c-4.142 0-7.5 3.358-7.5 7.5zm15-44.386h15.014v36.886h-15.014z"/><path d="m414.458 358.86c-4.142 0-7.5 3.358-7.5 7.5v51.886c0 4.142 3.358 7.5 7.5 7.5s7.5-3.358 7.5-7.5v-51.886c0-4.142-3.357-7.5-7.5-7.5z"/><path d="m384.444 358.86c-4.142 0-7.5 3.358-7.5 7.5v51.886c0 4.142 3.358 7.5 7.5 7.5s7.5-3.358 7.5-7.5v-51.886c0-4.142-3.358-7.5-7.5-7.5z"/><path d="m504.5 222.557h-30.014c-4.142 0-7.5 3.358-7.5 7.5v51.886c0 4.142 3.358 7.5 7.5 7.5h30.014c4.142 0 7.5-3.358 7.5-7.5v-51.886c0-4.142-3.358-7.5-7.5-7.5zm-7.5 51.886h-15.014v-36.886h15.014z"/><path d="m436.972 281.943c0 4.142 3.358 7.5 7.5 7.5s7.5-3.358 7.5-7.5v-51.886c0-4.142-3.358-7.5-7.5-7.5s-7.5 3.358-7.5 7.5z"/><path d="m7.5 44.947h30c4.142 0 7.5-3.358 7.5-7.5v-7.474h101.81l16.814 16.788.001 18.897c0 4.142 3.358 7.5 7.5 7.5s7.5-3.358 7.5-7.5l-.001-22.007c0-1.991-.792-3.9-2.201-5.307l-21.059-21.025c-1.391-1.469-3.348-2.345-5.448-2.345h-104.916v-7.474c0-4.142-3.358-7.5-7.5-7.5h-30c-4.142 0-7.5 3.358-7.5 7.5v29.947c0 4.142 3.358 7.5 7.5 7.5zm7.5-29.947h15v14.947h-15z"/><path d="m171.125 93.151c-4.142 0-7.5 3.358-7.5 7.5v83c0 4.142 3.358 7.5 7.5 7.5s7.5-3.358 7.5-7.5v-83c0-4.142-3.357-7.5-7.5-7.5z"/><path d="m504.5 0h-30c-4.142 0-7.5 3.358-7.5 7.5v7.474h-104.917c-2.086 0-4.03.864-5.418 2.315l-21.088 21.055c-1.409 1.407-2.201 3.316-2.201 5.308l-.002 140c0 4.142 3.358 7.5 7.5 7.5s7.5-3.358 7.5-7.5l.002-136.89 16.814-16.788h101.81v7.474c0 4.142 3.358 7.5 7.5 7.5h30c4.142 0 7.5-3.358 7.5-7.5v-29.948c0-4.142-3.358-7.5-7.5-7.5zm-7.5 29.947h-15v-14.947h15z"/><path d="m241 44.947h7.5v98.704c0 4.142 3.358 7.5 7.5 7.5s7.5-3.358 7.5-7.5v-98.704h7.5c4.142 0 7.5-3.358 7.5-7.5v-29.947c0-4.142-3.358-7.5-7.5-7.5h-30c-4.142 0-7.5 3.358-7.5 7.5v29.947c0 4.142 3.358 7.5 7.5 7.5zm7.5-29.947h15v14.947h-15z"/><path d="m171.126 320.849c-4.142 0-7.5 3.358-7.5 7.5l-.002 136.89-16.814 16.788h-101.81v-7.474c0-4.142-3.358-7.5-7.5-7.5h-30c-4.142 0-7.5 3.358-7.5 7.5v29.947c0 4.142 3.358 7.5 7.5 7.5h30c4.142 0 7.5-3.358 7.5-7.5v-7.474h104.917c2.086 0 4.03-.864 5.418-2.315l21.088-21.055c1.409-1.407 2.201-3.316 2.201-5.308l.002-140c0-4.141-3.358-7.499-7.5-7.499zm-141.126 176.151h-15v-14.947h15z"/><path d="m504.5 467.053h-30c-4.142 0-7.5 3.358-7.5 7.5v7.474h-35.098c-4.142 0-7.5 3.358-7.5 7.5s3.358 7.5 7.5 7.5h35.098v7.474c0 4.142 3.358 7.5 7.5 7.5h30c4.142 0 7.5-3.358 7.5-7.5v-29.947c0-4.143-3.358-7.501-7.5-7.501zm-7.5 29.947h-15v-14.947h15z"/><path d="m271 467.053h-7.5v-98.704c0-4.142-3.358-7.5-7.5-7.5s-7.5 3.358-7.5 7.5v98.704h-7.5c-4.142 0-7.5 3.358-7.5 7.5v29.947c0 4.142 3.358 7.5 7.5 7.5h30c4.142 0 7.5-3.358 7.5-7.5v-29.947c0-4.142-3.358-7.5-7.5-7.5zm-7.5 29.947h-15v-14.947h15z"/><path d="m396.596 482.026h-31.406l-16.814-16.788-.002-136.89c0-4.142-3.358-7.5-7.5-7.5s-7.5 3.358-7.5 7.5l.002 140c0 1.991.792 3.901 2.201 5.308l21.059 21.025c1.391 1.469 3.348 2.345 5.448 2.345h34.513c4.142 0 7.5-3.358 7.5-7.5s-3.359-7.5-7.501-7.5z"/></g></svg>