<?xml version="1.0" standalone="no"?>
<!DOCTYPE svg PUBLIC "-//W3C//DTD SVG 20010904//EN"
 "http://www.w3.org/TR/2001/REC-SVG-20010904/DTD/svg10.dtd">
<svg version="1.0" xmlns="http://www.w3.org/2000/svg"
 width="700.000000pt" height="700.000000pt" viewBox="0 0 700.000000 700.000000"
 preserveAspectRatio="xMidYMid meet">
<metadata>
Created by potrace 1.14, written by Peter Selinger 2001-2017
</metadata>
<g transform="translate(0.000000,700.000000) scale(0.100000,-0.100000)"
fill="#000000" stroke="none">
<path d="M54 6989 c-49 -24 -54 -51 -54 -292 0 -124 4 -237 10 -251 5 -14 21
-33 37 -43 24 -16 52 -18 259 -18 249 1 269 4 295 52 8 14 14 53 14 87 l0 61
695 3 695 2 95 -94 c149 -147 135 -118 136 -277 1 -153 9 -181 56 -205 49 -25
104 -11 134 34 23 35 24 370 1 405 -19 29 -310 317 -334 331 -12 7 -266 10
-747 11 l-730 0 -1 65 c-3 134 -17 140 -312 139 -131 0 -237 -5 -249 -10z
m349 -198 c4 -1 7 -46 7 -101 l0 -101 -102 3 -103 3 0 90 c-1 50 0 95 2 100 3
8 143 12 196 6z"/>
<path d="M3228 6971 l-33 -29 -3 -224 c-2 -139 1 -237 7 -259 15 -50 51 -71
125 -74 34 -1 64 -3 67 -4 3 0 6 -312 6 -692 l0 -691 31 -31 c44 -44 100 -44
144 0 l31 31 1 694 1 693 65 1 c80 1 115 21 131 73 7 23 9 117 7 258 l-3 223
-28 27 -27 28 -245 3 -244 3 -33 -30z m367 -183 c5 -5 9 -107 6 -170 l-1 -28
-100 0 c-88 0 -100 2 -101 18 -4 97 -4 160 2 172 6 12 26 15 98 14 50 0 93 -3
96 -6z"/>
<path d="M6431 6984 c-31 -22 -49 -69 -46 -124 1 -25 0 -50 -2 -55 -2 -7 -248
-10 -721 -9 -533 0 -725 -3 -747 -11 -29 -12 -312 -286 -342 -333 -13 -19 -15
-147 -15 -980 0 -526 1 -972 1 -990 2 -84 111 -123 172 -63 17 18 29 41 30 58
0 15 1 445 1 955 l1 927 116 115 116 116 694 -2 694 -3 3 -64 c2 -72 15 -103
50 -122 35 -18 456 -21 501 -3 58 23 63 47 63 298 0 141 -4 234 -11 249 -24
53 -47 57 -301 57 -200 0 -237 -2 -257 -16z m359 -193 c3 -1 5 -45 5 -98 l0
-98 -103 -3 -102 -3 0 100 c0 57 4 101 10 103 8 2 174 2 190 -1z"/>
<path d="M74 5828 c-17 -4 -39 -17 -50 -29 -18 -20 -19 -43 -22 -407 -2 -266
1 -395 8 -413 6 -15 27 -35 45 -45 44 -23 99 -11 129 29 20 28 21 38 21 417
l0 389 -29 29 c-32 34 -58 42 -102 30z"/>
<path d="M472 5823 c-62 -25 -62 -23 -62 -449 l0 -386 34 -34 34 -34 230 0
c127 0 242 4 256 10 14 5 33 21 43 37 17 25 18 58 19 405 0 409 -1 421 -53
449 -34 18 -456 20 -501 2z m348 -446 l0 -252 -100 0 c-73 0 -100 3 -101 13
-4 33 -5 478 -2 485 2 4 49 7 104 7 l99 0 0 -253z"/>
<path d="M1304 5828 c-17 -4 -39 -17 -50 -29 -18 -20 -19 -43 -22 -398 -2
-244 0 -389 7 -412 23 -76 131 -90 176 -23 20 30 21 42 19 410 -1 208 -2 384
-3 390 -2 19 -50 61 -74 66 -12 2 -36 1 -53 -4z"/>
<path d="M1710 5826 c-24 -7 -41 -22 -53 -46 -16 -32 -17 -71 -17 -414 l1
-379 35 -35 c31 -31 39 -34 76 -29 26 3 51 15 67 31 l26 26 1 383 c0 210 -3
391 -7 402 -23 57 -72 80 -129 61z"/>
<path d="M5235 5831 c-33 -10 -63 -35 -73 -62 -5 -13 -9 -193 -8 -399 1 -344
3 -378 19 -403 37 -56 104 -62 153 -13 l33 33 1 383 c0 439 0 438 -78 459 -15
4 -36 5 -47 2z"/>
<path d="M5650 5833 c-38 -11 -60 -28 -73 -57 -11 -25 -14 -104 -13 -406 1
-344 3 -378 19 -403 35 -54 101 -61 149 -18 l33 29 3 383 c3 385 0 422 -33
449 -18 15 -67 28 -85 23z"/>
<path d="M6053 5832 c-29 -4 -70 -46 -75 -80 -3 -15 -5 -191 -4 -392 1 -335 3
-368 19 -393 10 -16 29 -32 43 -37 14 -6 129 -10 256 -10 l230 0 34 34 34 34
0 390 0 390 -29 31 c-16 17 -35 32 -43 32 -32 3 -445 4 -465 1z m329 -214 c4
-11 3 -473 -1 -488 0 -3 -46 -5 -101 -5 l-100 0 0 253 0 252 99 0 c70 0 100
-4 103 -12z"/>
<path d="M6873 5832 c-29 -4 -73 -49 -74 -76 -1 -11 -2 -185 -3 -386 -3 -391
-1 -401 48 -434 47 -30 110 -15 139 34 15 25 17 72 17 412 0 382 0 383 -23
411 -23 29 -67 45 -104 39z"/>
<path d="M2287 5712 c-50 -31 -51 -35 -52 -646 0 -314 3 -584 7 -600 13 -50
46 -76 96 -76 56 0 102 41 103 92 1 43 1 1126 0 1155 -1 13 -13 36 -28 53 -33
37 -86 46 -126 22z"/>
<path d="M1836 4121 c-17 -9 -36 -27 -43 -41 -16 -31 -19 -1114 -3 -1154 20
-55 51 -62 247 -60 141 1 188 5 228 19 184 64 288 257 239 445 -15 55 -68 150
-85 150 -17 0 -9 20 26 69 49 67 67 124 68 211 2 161 -87 292 -241 354 -65 26
-387 31 -436 7z m405 -223 c96 -69 91 -208 -9 -270 -30 -19 -52 -22 -141 -24
l-106 -2 1 151 c1 84 2 158 3 165 1 10 26 13 106 11 99 -1 108 -3 146 -31z
m-14 -521 c45 -24 75 -72 81 -126 6 -61 -16 -111 -64 -147 -35 -27 -44 -29
-146 -32 -59 -2 -109 0 -109 5 -1 4 -2 79 -3 165 l-1 157 105 -3 c74 -2 114
-7 137 -19z"/>
<path d="M2793 4132 c-29 -4 -70 -46 -76 -77 -2 -14 -3 -125 -2 -248 2 -244 7
-269 68 -360 32 -48 128 -122 173 -133 l24 -6 0 -190 0 -190 31 -29 c17 -16
37 -30 45 -30 8 -1 20 -2 27 -3 21 -3 73 25 87 48 10 15 14 68 15 203 0 100 3
184 5 186 3 2 28 14 55 27 67 32 140 107 173 178 27 56 27 60 30 308 3 251 3
252 -20 278 -47 54 -129 51 -162 -6 -17 -29 -20 -55 -21 -252 -1 -235 -3 -248
-53 -294 -49 -47 -124 -57 -184 -26 -79 41 -88 73 -88 320 -1 206 -8 259 -39
279 -20 12 -65 21 -88 17z"/>
<path d="M3714 4130 c-70 -19 -100 -89 -63 -149 25 -42 53 -51 159 -51 l89 0
3 -505 c3 -497 3 -505 24 -525 30 -30 85 -41 121 -24 58 29 57 15 59 549 1
270 2 493 3 497 0 3 47 8 104 10 91 3 104 5 126 27 30 30 39 92 17 125 -31 48
-43 50 -342 51 -155 0 -290 -2 -300 -5z"/>
<path d="M4638 4132 c-30 -8 -60 -28 -71 -47 -14 -24 -19 -1116 -6 -1153 12
-30 31 -50 61 -60 13 -5 138 -8 278 -7 289 1 300 4 321 75 10 33 9 43 -8 72
-31 54 -48 58 -260 58 l-193 0 -1 23 c0 22 0 147 1 248 l0 56 189 0 c210 0
240 6 264 55 21 43 13 87 -22 121 l-29 29 -201 1 c-175 1 -201 3 -201 16 -1
28 -2 184 -1 249 l1 62 198 0 c162 0 201 3 220 16 61 42 63 131 4 170 -24 16
-55 18 -279 19 -139 0 -258 -1 -265 -3z"/>
<path d="M64 3949 c-12 -4 -31 -20 -43 -35 -21 -26 -21 -33 -21 -415 l0 -389
29 -32 29 -33 229 -2 c133 -1 242 3 261 9 67 20 67 20 68 437 1 402 -2 427
-50 454 -24 13 -467 19 -502 6z m346 -449 l0 -251 -102 3 -103 3 0 248 0 247
102 0 103 0 0 -250z"/>
<path d="M885 3950 c-11 -4 -29 -18 -40 -30 -19 -21 -20 -36 -20 -421 l0 -399
25 -24 c54 -53 149 -33 168 36 14 53 9 768 -6 795 -21 39 -84 60 -127 43z"/>
<path d="M6023 3940 c-17 -10 -35 -29 -39 -42 -12 -33 -12 -757 -1 -791 11
-32 43 -57 84 -63 36 -5 90 27 104 63 6 16 9 169 7 409 l-3 384 -25 24 c-34
34 -87 40 -127 16z"/>
<path d="M6432 3940 c-16 -10 -34 -31 -39 -47 -15 -45 -10 -773 6 -801 24 -44
59 -50 301 -48 236 1 254 4 284 48 14 19 16 76 16 410 l0 388 -29 32 -29 33
-241 1 c-214 1 -243 -1 -269 -16z m363 -437 l0 -248 -103 -3 -102 -3 0 251 0
250 103 0 102 0 0 -247z"/>
<path d="M2269 2581 c-16 -16 -29 -35 -30 -43 0 -7 -2 -437 -2 -956 l-2 -942
-114 -115 -115 -115 -695 2 -695 3 -2 63 c-3 132 -19 138 -315 137 -247 -1
-268 -5 -289 -61 -14 -36 -13 -467 1 -497 24 -52 48 -57 292 -57 124 0 237 4
251 10 41 15 60 55 61 129 l1 66 730 0 c654 0 733 2 754 16 31 20 319 310 333
334 7 13 10 338 9 979 0 529 -1 974 -1 989 -1 45 -50 87 -101 87 -33 0 -48 -6
-71 -29z m-1859 -2271 c0 -55 -3 -100 -7 -101 -50 -6 -193 -2 -196 6 -3 8 -1
165 2 188 1 4 46 7 101 7 l100 0 0 -100z"/>
<path d="M4589 2581 c-21 -22 -29 -39 -30 -68 0 -21 -1 -466 -1 -989 -1 -633
3 -957 10 -969 20 -36 326 -334 351 -343 14 -4 142 -8 284 -7 l257 0 31 31
c50 51 40 127 -21 159 -23 12 -73 15 -252 15 l-223 0 -115 114 -115 114 -2
928 c-1 511 -2 942 -2 957 -1 45 -50 87 -101 87 -33 0 -48 -6 -71 -29z"/>
<path d="M479 2085 c-69 -23 -69 -26 -69 -452 l0 -382 31 -36 31 -35 242 0
c259 0 269 2 298 53 15 26 20 756 6 798 -5 14 -23 33 -40 44 -28 16 -56 18
-249 19 -136 1 -230 -3 -250 -9z m341 -448 l0 -253 -102 1 -103 1 -1 244 c0
135 1 248 3 253 2 4 49 7 104 7 l99 0 0 -253z"/>
<path d="M1710 2086 c-24 -8 -40 -22 -52 -46 -16 -31 -18 -73 -18 -401 0 -231
4 -377 11 -396 22 -66 119 -81 170 -27 l24 26 1 381 c1 210 -3 392 -7 405 -19
51 -74 76 -129 58z"/>
<path d="M5211 2083 c-57 -28 -58 -37 -57 -458 l1 -385 26 -26 c16 -15 41 -28
66 -31 35 -5 45 -1 74 25 l34 30 3 378 c1 247 -1 389 -8 410 -19 56 -85 83
-139 57z"/>
<path d="M6037 2083 c-62 -25 -61 -20 -62 -438 -2 -405 0 -416 47 -449 19 -13
60 -16 255 -16 145 0 241 4 256 11 56 25 57 34 57 444 0 405 -2 419 -53 447
-32 17 -456 18 -500 1z m345 -205 c4 -11 3 -473 -1 -488 0 -3 -45 -5 -98 -5
l-98 0 -3 253 -2 252 99 0 c70 0 100 -4 103 -12z"/>
<path d="M6864 2085 c-16 -7 -38 -22 -49 -35 -19 -21 -20 -37 -20 -410 0 -379
1 -389 21 -417 42 -57 132 -53 167 6 15 26 17 70 17 408 0 359 -1 380 -20 411
-11 17 -21 32 -22 32 -2 0 -17 4 -34 9 -20 6 -40 5 -60 -4z"/>
<path d="M47 2079 c-45 -26 -47 -46 -47 -444 0 -336 2 -380 17 -406 36 -61
128 -63 168 -4 20 30 20 44 20 400 -1 204 -4 384 -8 401 -13 52 -99 83 -150
53z"/>
<path d="M1272 2072 c-12 -10 -26 -31 -32 -46 -6 -17 -10 -164 -10 -393 0
-309 2 -370 15 -398 36 -75 141 -73 178 3 20 41 18 778 -3 809 -29 44 -110 58
-148 25z"/>
<path d="M5608 2076 c-43 -32 -44 -47 -44 -451 l1 -387 33 -29 c51 -46 134
-32 161 28 15 34 15 766 0 796 -19 37 -52 57 -94 56 -22 0 -48 -6 -57 -13z"/>
<path d="M3475 2062 c-28 -6 -62 -40 -72 -71 -5 -14 -8 -329 -7 -698 0 -370
-2 -673 -5 -674 -3 0 -34 -2 -67 -4 -70 -3 -108 -23 -122 -64 -5 -15 -9 -132
-8 -260 l1 -233 33 -29 33 -30 246 3 245 3 28 32 29 32 1 230 c1 231 -2 255
-36 288 -21 21 -56 30 -111 28 -32 -1 -54 3 -55 9 -1 6 -2 310 -4 676 -1 366
-3 673 -3 682 -1 10 -13 31 -28 48 -28 29 -60 40 -98 32z m126 -1667 c0 -8 1
-28 1 -45 0 -16 -1 -56 -1 -88 l-1 -57 -100 0 c-88 0 -100 2 -101 18 -1 22 -1
175 0 182 1 3 46 5 101 5 82 0 100 -3 101 -15z"/>
<path d="M6468 610 c-33 -6 -78 -44 -79 -67 -1 -10 -2 -43 -3 -73 l-1 -55
-261 -5 c-281 -5 -281 -5 -310 -62 -23 -44 -4 -106 39 -130 16 -9 93 -12 267
-13 135 0 250 -4 256 -7 6 -4 10 -29 9 -55 -1 -26 3 -62 11 -80 23 -58 47 -63
299 -63 246 0 270 5 294 57 14 30 15 461 1 497 -21 55 -43 60 -279 61 -119 0
-228 -2 -243 -5z m323 -207 c7 -48 3 -193 -6 -196 -5 -2 -50 -3 -100 -2 l-90
0 -3 103 -3 102 101 0 c55 0 100 -3 101 -7z"/>
</g>
</svg>
