<svg style="position: absolute; width: 0; height: 0; overflow: hidden;" version="1.1"
     xmlns="http://www.w3.org/2000/svg">
    <defs>
        <symbol id="icon-github" viewBox="0 0 100 100">
            <path fill-rule="nonzero"
                  d="M49.996 4.167C24.69 4.167 4.167 24.687 4.167 50.001C4.167 70.251 17.298 87.429 35.511 93.49C37.804 93.912 38.64 92.496 38.64 91.281C38.64 90.195 38.6 87.311 38.578 83.487C25.829 86.256 23.139 77.342 23.139 77.342C21.054 72.047 18.049 70.637 18.049 70.637C13.888 67.795 18.364 67.851 18.364 67.851C22.965 68.175 25.385 72.576 25.385 72.576C29.473 79.579 36.113 77.556 38.724 76.382C39.141 73.422 40.325 71.402 41.634 70.257C31.456 69.101 20.756 65.167 20.756 47.604C20.756 42.601 22.543 38.508 25.475 35.306C25.002 34.146 23.429 29.484 25.925 23.176C25.925 23.176 29.771 21.943 38.527 27.875C42.182 26.856 46.104 26.35 50.001 26.33C53.896 26.35 57.815 26.856 61.476 27.875C70.226 21.943 74.067 23.176 74.067 23.176C76.568 29.484 74.995 34.146 74.525 35.306C77.463 38.508 79.235 42.601 79.235 47.604C79.235 65.212 68.518 69.087 58.31 70.22C59.953 71.636 61.419 74.433 61.419 78.709C61.419 84.835 61.363 89.778 61.363 91.281C61.363 92.508 62.19 93.934 64.514 93.487C82.713 87.412 95.833 70.246 95.833 50.001C95.833 24.687 75.31 4.167 49.996 4.167"/>
        </symbol>
        <symbol id="icon-mast" viewBox="0 0 100 100">
            <g>
                <path fill="none" d="M0 0h100v100H0z"/>
                <path fill-rule="nonzero"
                      d="M88.575 58.292c-1.142 5.875 -10.233 12.313 -20.675 13.558 -5.442 0.65 -10.804 1.25 -16.521 0.983 -9.346 -0.429 -16.725 -2.229 -16.725 -2.229 0 0.908 0.058 1.775 0.167 2.583 1.217 9.229 9.15 9.779 16.667 10.042 7.583 0.258 14.333 -1.875 14.333 -1.875l0.317 6.858s-5.308 2.85 -14.758 3.375c-5.208 0.283 -11.679 -0.133 -19.217 -2.125 -16.346 -4.329 -19.158 -21.75 -19.587 -39.433 -0.129 -5.25 -0.05 -10.196 -0.05 -14.333 0 -18.083 11.846 -23.379 11.846 -23.379 5.971 -2.742 16.217 -3.896 26.875 -3.983h0.258c10.654 0.083 20.908 1.242 26.879 3.983 0 0 11.846 5.3 11.846 23.375 0 0 0.15 13.338 -1.654 22.6zm-12.317 -21.196c0 -4.475 -1.138 -8.029 -3.425 -10.658 -2.362 -2.629 -5.45 -3.979 -9.288 -3.979 -4.438 0 -7.796 1.708 -10.021 5.117l-2.158 3.625 -2.163 -3.625C46.983 24.167 43.625 22.458 39.188 22.458c-3.838 0 -6.929 1.35 -9.288 3.979 -2.288 2.629 -3.425 6.183 -3.425 10.658v21.888h8.671V37.738c0 -4.479 1.883 -6.75 5.654 -6.75 4.167 0 6.254 2.696 6.254 8.029v11.625h8.625v-11.625c0 -5.333 2.083 -8.029 6.25 -8.029 3.771 0 5.658 2.271 5.658 6.75v21.25h8.667V37.092z"/>
            </g>
        </symbol>
        <symbol id="icon-rss" viewBox="0 0 100 100">
            <path d="M12 12v11.835c35.43 0 64.15 28.73 64.15 64.16h11.845C87.995 46.025 53.97 12 12 12zm0 23.685v11.845a40.465 40.465 0 0 1 40.465 40.47h11.84c0 -28.89 -23.42 -52.315 -52.305 -52.315zm11.345 29.61a11.355 11.355 0 0 0 0 22.705c6.27 0 11.345 -5.08 11.345 -11.35s-5.075 -11.355 -11.345 -11.355z"/>
        </symbol>
        <symbol id="icon-menu" viewBox="0 0 27 32">
            <title>menu</title>
            <path d="M27.424 24v2.272q0 0.48-0.32 0.8t-0.832 0.352h-25.12q-0.48 0-0.8-0.352t-0.352-0.8v-2.272q0-0.48 0.352-0.8t0.8-0.352h25.12q0.48 0 0.832 0.352t0.32 0.8zM27.424 14.848v2.304q0 0.448-0.32 0.8t-0.832 0.32h-25.12q-0.48 0-0.8-0.32t-0.352-0.8v-2.304q0-0.448 0.352-0.8t0.8-0.32h25.12q0.48 0 0.832 0.32t0.32 0.8zM27.424 5.728v2.272q0 0.448-0.32 0.8t-0.832 0.352h-25.12q-0.48 0-0.8-0.352t-0.352-0.8v-2.272q0-0.48 0.352-0.832t0.8-0.32h25.12q0.48 0 0.832 0.32t0.32 0.832z"></path>
        </symbol>
        <symbol id="icon-circle-left" viewBox="0 0 16 16">
            <path d="M8 16c4.418 0 8-3.582 8-8s-3.582-8-8-8-8 3.582-8 8 3.582 8 8 8zM8 1.5c3.59 0 6.5 2.91 6.5 6.5s-2.91 6.5-6.5 6.5-6.5-2.91-6.5-6.5 2.91-6.5 6.5-6.5z"></path>
            <path d="M10.457 4.957l-1.414-1.414-4.457 4.457 4.457 4.457 1.414-1.414-3.043-3.043z"></path>
        </symbol>
        <symbol id="icon-circle-right" viewBox="0 0 16 16">
            <path d="M8 0c-4.418 0-8 3.582-8 8s3.582 8 8 8 8-3.582 8-8-3.582-8-8-8zM8 14.5c-3.59 0-6.5-2.91-6.5-6.5s2.91-6.5 6.5-6.5 6.5 2.91 6.5 6.5-2.91 6.5-6.5 6.5z"></path>
            <path d="M5.543 11.043l1.414 1.414 4.457-4.457-4.457-4.457-1.414 1.414 3.043 3.043z"></path>
        </symbol>
    </defs>
</svg>
